<svg xmlns="http://www.w3.org/2000/svg" viewBox="0 0 163.19 272.64"><defs><style>.cls-1{fill:#fff;}.cls-1,.cls-2{fill-rule:evenodd;}</style></defs><g id="Layer_2" data-name="Layer 2"><g id="Layer_1-2" data-name="Layer 1"><path class="cls-1" d="M20.57,164c1.84-7.15,3.53-10.18,6.8-12.66,3.06-2.32,7.53-4.27,14.05-5.7,6.78-1.18,7-4.71,8.68-10.38a2.46,2.46,0,0,1,4-.93,4.89,4.89,0,0,1,.46-.45c-.14-.81,1-3.14,1-3.92-.41-8.12,2.25-12.19,8.87-13.71,1.44-.33,11.23-.52,12.64-.14,6.14,1.7,12.19,7.1,11.26,13.59a12,12,0,0,0,6.79,4.87q9.93,1.28,19.86,2.23a55,55,0,0,1,33.43,18.91,2.6,2.6,0,0,1,.31,3.16c.53,2.27,3.51,7.77,1.16,9.33,3.86,9.23,12.74,27.07,12.75,32.16.07,21.41-2.24,49.28-23.36,61.13a6,6,0,0,0-1.33,3c-.93,3.9-4.3,6.69-8,6.46-18.19.4-35.8-1.81-54-1.92-8,0-17.67,1.15-24.63,2a51.16,51.16,0,0,1-20.69-2,2.71,2.71,0,0,1-2.86,1.15c-6.93-1.38-12.53-5.65-17.41-10.32-1.49-2.71-7.32-10.45-5-13.14-2.1-8.87-2-18.41,1.74-26.86-.53-1.55.43-3.25,0-4.85-.32-1.16-1.13-1.64-1.53-2.78-.57-1.62,0-3.78.69-5.43.27-.82-.48-1.7-.69-2.54-1-3.95,1.27-3.6,2.9-6.24,0,0-.45-1.89-.45-1.88A7.63,7.63,0,0,1,9,192a2,2,0,0,1,1.94-1.15,67.88,67.88,0,0,0-2.86-7.49,77.91,77.91,0,0,0-7-13c-1.12-1.69.38-3.65,2.19-3.76A110.45,110.45,0,0,0,20.57,164Z"/><path class="cls-2" d="M37.63,198.44A25.45,25.45,0,0,1,45,196.82c-1.36-.24-2.73-.47-4.11-.59a2.93,2.93,0,0,0-2.57.65,7.15,7.15,0,0,0-1,1.69l.32-.13Zm-25.1-8.58a29.43,29.43,0,0,1,11.13,2.76,5.05,5.05,0,0,1,3.08,3.25,7.24,7.24,0,0,1,0,2.5c-.08.63-.1,1.43-.64,1.85a.9.9,0,0,1-.3.17,25.52,25.52,0,0,1,3.58,2,6.46,6.46,0,0,1,2.46,2.79l.12-.36a10.09,10.09,0,0,1,3.86-5.45.83.83,0,0,1-.46-1,4.6,4.6,0,0,1,4.48-3.7,18.42,18.42,0,0,1,7,2.07c.77,0,1.54,0,2.3,0a.1.1,0,0,1,0,.2l-1.85.27c-1.46.23-2.93.53-4.36.9a27.53,27.53,0,0,0-5.09,1.66,9.11,9.11,0,0,0-4.64,8.88c.07.56.28,2.26,1.06,2.09s.92-1.53,1.15-2a5.79,5.79,0,0,1,3.07-2.83c1.56-.71,3.24-1.18,4.86-1.73l2.76-1a5.15,5.15,0,0,1,2.84-.54.77.77,0,0,1,.34,1.27,4.09,4.09,0,0,1-2,1.08l-3,1c-1.52.53-3.11,1-4.59,1.62l0,.11A.2.2,0,0,1,40,208a11.25,11.25,0,0,0-.19,4.32c.27,1.08,1.22,2.29,2.46,2a.65.65,0,0,1-.13-.77c.49-1.05,6.91-5.19,7.48-3.65a.07.07,0,0,1-.09.09c-.48-.1-1.3.73-1.69,1-.57.38-1.14.75-1.7,1.15s-1.2.87-1.78,1.33a4.52,4.52,0,0,1-1.33.93,1.08,1.08,0,0,1,.59.68,2.76,2.76,0,0,0,1.48,1.86,8.34,8.34,0,0,0,2.64.23,5.33,5.33,0,0,1,3.1,1.49c1.83,1.71,2.74,4.71,5.29,5.51a10.93,10.93,0,0,0,4.76,0,18,18,0,0,1,5.13-.18,17.33,17.33,0,0,1,4.75,1.52A22.2,22.2,0,0,1,75,227.81c.26-.8.52-1.59.72-2.41a28.58,28.58,0,0,0,.79-5.89,51.08,51.08,0,0,0-.21-5.67c-.09-1-.21-1.88-.29-2.82,0-.24-.07-.49-.1-.75a65.38,65.38,0,0,0-7-3.39h0l-.22-.1h0a1.54,1.54,0,0,1-.58-.64,27.56,27.56,0,0,1-8.45-9,28,28,0,0,0-2.94-4.44A8.44,8.44,0,0,0,52.15,190a42.7,42.7,0,0,0-6.57-1c-1.2-.1-2.54-.25-3.85-.24a9.82,9.82,0,0,0-2.63.31,5.47,5.47,0,0,0-2.68,2.19c-.74.89-1.45,1.8-2.14,2.73a26.5,26.5,0,0,0-1.78,2.76,16.21,16.21,0,0,0-.86,1.78,5.54,5.54,0,0,0-.25.68c-.05.23,0,.47-.21.47,1,0,1,1.68,0,1.62-4.07-.23,1.76-8.18,2.61-9.29,1.2-1.57,2.45-3.61,4.38-4.34l.08,0a10.16,10.16,0,0,1-1.43-1.82,6.55,6.55,0,0,1-1.1-2.23.46.46,0,0,1,.83-.35,14.08,14.08,0,0,1,1,2.17c.33.72.73,1.4,1,2.12a10,10,0,0,1,2.42-.38c-1.05-1.43-2.86-4.19-3.08-4.55q-1.5-2.48-2.87-5c-1-1.84-1.82-3.76-2.77-5.62-.53-1-1.07-2.12-1.66-3.14a10,10,0,0,0-.68-1c0-.06-.11-.12-.16-.18l-.17-.09c-.35-.2-.47-.66-.71-.94a1.58,1.58,0,0,0-1.41-.53c-1.24,0-2.48,0-3.71.07-2.35.06-4.71.17-7.06.31-2.63.15-5.26.36-7.88.61-2.32.22-4.64.58-7,.76a221.39,221.39,0,0,0,10.58,21.88.85.85,0,0,1,.09.22ZM30,209.11a8.55,8.55,0,0,1,1.46.85,8.54,8.54,0,0,1-.07-1.6,2.58,2.58,0,0,1-1.39.75ZM8.33,196.26a.09.09,0,0,1,.08.05,3.58,3.58,0,0,1-.73,4.2c-.6.6-1.91,1.26-1.87,2.24,0,.78.89,1.44,1.26,2.09a2.14,2.14,0,0,1,.19,1.92c-.35.84-1.32,1.18-1.65,2-.43,1.05.26,2.31.74,3.22s1,1.69,1.41,2.58A27.08,27.08,0,0,1,14.63,220c2.16,2.27,4,4.94,7.47,4.87a.87.87,0,0,1,.76.43c1,0,1.92.07,2.88.07,1.69,0,3.38,0,5.06-.06a5.32,5.32,0,0,0,0-1.31c0-1.11,0-2.22.08-3.33l0-.92a3.21,3.21,0,0,1-3.13,1.52c-2.17-.13-4.35-.49-6.5-.81-1.13-.16-2.26-.35-3.38-.56-.93-.16-2.23-.12-2.88-.86a.39.39,0,0,1,.08-.61,2.35,2.35,0,0,1,1.75,0q3.75.72,7.55,1.26c.95.13,1.9.26,2.84.37a2.88,2.88,0,0,0,2.43-.42c1.35-1.26.6-3.37-.26-4.64a.17.17,0,0,1,0-.07c-.8-.19-1.6-.41-2.4-.56-1.54-.29-3.08-.55-4.63-.77-3.18-.45-6.38-.75-9.58-1.05-.79-.08-.8-1.33,0-1.25A137.82,137.82,0,0,1,26.57,213q1.71.33,3.39.75a7.2,7.2,0,0,0,1.66.34h.1c1.08,0,1.24-1,.65-1.74l-.23-.28a15.69,15.69,0,0,0-3.73-3c-1.52-.21-3-.67-4.52-1l-11-2.51c-.72-.16-.41-1.27.31-1.11l8.36,1.9,4.08.93c.82.18,1.84.55,2.8.68a3.53,3.53,0,0,0,1.34,0c1.34-.32,1.41-2,.83-3a7.64,7.64,0,0,0-2.95-2.45c-1.88-1.1-3.88-1.88-5.83-2.79l-1-.23a35.11,35.11,0,0,1-6.21-1.48c-.57-.24-.26-1.13.3-1.12a24.48,24.48,0,0,1,4.45.87l4.67,1a5.64,5.64,0,0,0,1.23.26c.08,0,.12-.35.15-.55a7.35,7.35,0,0,0,.06-2c-.23-1.51-1.48-2.21-2.75-2.79a29.56,29.56,0,0,0-9-2.41c-.71-.07-1.42-.12-2.13-.14s-1.53-.17-2,.65a15,15,0,0,0-1.25,4.47Zm3.92,47.2c.61-2.13.45-4.4.87-6.57.22-1.12.5-2.23.83-3.32a12.34,12.34,0,0,0,.75-2.75.08.08,0,0,0-.12-.07,6.64,6.64,0,0,0-2,2.42,16.65,16.65,0,0,0-1.41,3.17c-.72,2.22-1.32,4.89-.38,7.12A.78.78,0,0,0,12.25,243.46Zm19-28.19a14.1,14.1,0,0,1-1.56-.26,5.85,5.85,0,0,1,1.42,2c.05-.58.11-1.16.18-1.73Zm5,44.3a17.91,17.91,0,0,0,2.36-2.33c.76-.77-.43-2-1.19-1.19a17.1,17.1,0,0,1-2,2.06.84.84,0,1,0,.85,1.46ZM41.36,235a46.26,46.26,0,0,0-5.07-2,.85.85,0,0,0-.45,1.63,41.71,41.71,0,0,1,4.67,1.87c1,.42,1.85-1,.85-1.46ZM59,234.47c.41-1-1.23-1.44-1.63-.45-.47,1.15-1,2.26-1.46,3.41s1.22,1.45,1.63.45C58,236.73,58.56,235.62,59,234.47Zm17.44,20.17a.85.85,0,0,0,1.46-.86,30.29,30.29,0,0,0-2.57-3.09c-.76-.77-2,.42-1.19,1.2A26.38,26.38,0,0,1,76.47,254.64ZM79,141.48a16.07,16.07,0,0,0-2.12,1.84.85.85,0,0,0,1.2,1.19,13.89,13.89,0,0,1,1.77-1.57.84.84,0,1,0-.85-1.46ZM53.59,168.69a6.52,6.52,0,0,1,.86,2.74.85.85,0,0,0,1.69,0,8.44,8.44,0,0,0-1.09-3.59c-.49-1-1.94-.12-1.46.85Zm-9.31-21.85c-.91-.61-1.75.86-.85,1.46l2.19,1.46c.91.61,1.75-.86.85-1.46Zm40.38,38.21c.15,1.07,1.78.61,1.63-.45a38.17,38.17,0,0,0-1-4.87.85.85,0,0,0-1.63.45A38.17,38.17,0,0,1,84.66,185.05Zm5.92,19.36a.85.85,0,0,0,0-1.69,13.08,13.08,0,0,0-2.9.52c-1.06.26-.61,1.89.45,1.63A11.39,11.39,0,0,1,90.58,204.41Zm2.19,39c.37.18.76.34,1.14.52l7,3.21c3.15,1.46,6.32,2.87,9.48,4.31s6.43,3,9.63,4.46c1.51.7,3,1.38,4.55,2.07,1.3.59,2.91,1.61,4.33,1.71.08,0,.1-.09.06-.13a7.67,7.67,0,0,0-2.11-1.37c-.72-.41-1.46-.79-2.19-1.18q-2.3-1.21-4.6-2.4L110.77,250c-3.16-1.58-6.31-3.17-9.49-4.69L94.34,242c-.35-.16-.7-.34-1.06-.49A7.68,7.68,0,0,0,92,241.2a.7.7,0,0,0-.53,1.27A8.22,8.22,0,0,0,92.77,243.43Zm11.28,17.34a.84.84,0,0,0-.59-1,.87.87,0,0,0-1,.59,9.22,9.22,0,0,1-2,3c-.76.78.44,2,1.2,1.2A11.74,11.74,0,0,0,104.05,260.77Zm8.3-27.14a.85.85,0,0,0-1.19-1.2L109,234.62a.85.85,0,0,0,1.19,1.2l2.19-2.19Zm22.48-3.58c1.57.47,3.41.89,4.48,2.23.05.07.14,0,.11-.08-1.37-2.85-5.32-3.85-8-4.85-1.93-.7-3.91-1.29-5.91-1.81.2-2.28-.35-4.73-.54-7-.21-2.43-.37-4.85-.46-7.28s-.11-5,0-7.46.4-4.9.54-7.37c0-.23-.31-.24-.39-.05a32.33,32.33,0,0,0-1.45,7.22,58,58,0,0,0-.33,7.45c0,2.57.18,5.13.39,7.69.09,1.21.21,2.42.31,3.63a22.52,22.52,0,0,0,.31,2.74c-1.2-.3-2.41-.58-3.62-.85-3.83-.87-7.69-1.67-11.51-2.61-1.88-.46-3.72-1-5.59-1.5a40.76,40.76,0,0,0-5.42-1.22c-.65-.07-.73.81-.3,1.11a20.52,20.52,0,0,0,5.11,2.32c1.7.58,3.47,1,5.21,1.43,3.64.89,7.31,1.62,11,2.39s7.33,1.51,11,2.45c1.74.45,3.48.91,5.21,1.41Zm8.63-45.23a.85.85,0,0,0,.85-1.46,28.62,28.62,0,0,0-3.85-1.79c-1-.4-1.45,1.23-.45,1.63A26.4,26.4,0,0,1,143.46,184.82Zm3.4,62.82a.85.85,0,0,0,.86-1.46c-1.32-.77-2.77-1.28-4.14-2-1-.48-1.83,1-.85,1.46,1.37.67,2.81,1.18,4.13,1.95ZM148.4,212a9.84,9.84,0,0,1-3.28,1.73c-1,.4-.56,2,.45,1.63a11.88,11.88,0,0,0,4-2.17c.79-.75-.41-1.94-1.19-1.19Zm-10.1-48.43c-1,.4-.56,2,.45,1.63s2.29-.77,3.41-1.21.56-2-.45-1.63-2.28.77-3.41,1.21Zm-17.8-19.23c-1.07-.18-1.52,1.45-.45,1.63a19.77,19.77,0,0,1,3.89,1c1,.4,1.46-1.24.45-1.63A20,20,0,0,0,120.5,144.32Zm-5.88,46.83c1-.48.12-1.94-.86-1.46a13.84,13.84,0,0,1-3.2,1.13c-1.07.23-.61,1.86.45,1.63A15.14,15.14,0,0,0,114.62,191.15Zm-5.56-26.38a.85.85,0,0,0-.45,1.63c1.84.51,3.74.77,5.6,1.22,1.06.26,1.51-1.38.45-1.63C112.8,165.54,110.9,165.28,109.06,164.77Zm-23.57-8.28c-1.07.2-.61,1.83.45,1.63a18.71,18.71,0,0,1,3.43-.21.85.85,0,0,0,0-1.69,21.89,21.89,0,0,0-3.88.27ZM8.62,165.33q4.14-.41,8.3-.64l.38,0a.41.41,0,0,1,.05-.09,19.45,19.45,0,0,0,2.15-4.15,22.09,22.09,0,0,1,1.93-4.19,13.74,13.74,0,0,1,3.71-3.62,16.59,16.59,0,0,1,2.42,2,.85.85,0,0,0,1.19-1.2,18.7,18.7,0,0,0-2.09-1.78c.85-.52,1.72-1,2.57-1.49q4.79-2.73,9.79-5c1.55-.72,3.11-1.35,4.69-2,.85-.34,1.69-.79,2.54-1.19a2,2,0,0,1,.58-1.67,4.09,4.09,0,0,1,1-.6l.17-.06-.16,0q-.33.15-.06-.09c0-.34.69-1.06.84-1.42a18.53,18.53,0,0,1,1.5-3.59A4.14,4.14,0,0,1,54.76,133a18.54,18.54,0,0,1,.92-5.37s.08-.06.1,0a8.23,8.23,0,0,1,.84,4,23.14,23.14,0,0,1-.17,4l.34.25a7.84,7.84,0,0,0,1.75.84,13.53,13.53,0,0,0,3.63.61,44.05,44.05,0,0,0,9.59-.71c3.16-.55,8-1.38,10.82-3A60.69,60.69,0,0,0,87.89,130a9.56,9.56,0,0,1-.16-5.92.24.24,0,0,1,.46,0c.4,1.63.51,3.28,1,4.9l0,.07.49-.33a.83.83,0,0,1,1.13.29c3.65,5.75,9.42,6.08,15.49,7.11a122.85,122.85,0,0,1,19.7,4.54,43.09,43.09,0,0,1,16.56,9.75,38.27,38.27,0,0,1,3,3.29,15.25,15.25,0,0,0-2.65.56c-1,.33-.59,2,.45,1.63a14.81,14.81,0,0,1,3.41-.61,74.39,74.39,0,0,1,7.7,14,102.26,102.26,0,0,1,7.93,29c-.67-.4-1.35-.78-2-1.13-1-.5-1.82,1-.85,1.46a34.88,34.88,0,0,1,3.14,1.8,106.93,106.93,0,0,1,.51,13.15,112.12,112.12,0,0,1-4.85,31.2,47.08,47.08,0,0,1-6.74,13.89,24.15,24.15,0,0,1-4.86,5,19.82,19.82,0,0,1-2.87,1.81c-1.31.66-3,.88-4.13,1.83a3.45,3.45,0,0,0-.87,1.18,6.36,6.36,0,0,1-.1,2.64.94.94,0,0,1-.54.61v.22a0,0,0,0,1-.06,0l0-.2a.78.78,0,0,1-.26,0c-3.21,0-6.42-.07-9.64-.17.25-.77.52-1.52.78-2.28.35-1-1.28-1.48-1.63-.45s-.62,1.77-.9,2.66c-3.44-.12-6.88-.28-10.32-.39-7.31-.24-14.61-.32-21.92-.48-11.35-.24-22.79-.73-34.16-.25-.39-.83-.83-1.65-1.25-2.47-.49-1-2-.12-1.46.85l.88,1.71c-2.3.12-4.61.28-6.9.49-3.92.37-7.8,1-11.71,1.43a43.74,43.74,0,0,1-11.82-.32,1.57,1.57,0,0,1-1.3-1.08h0a4.93,4.93,0,0,0-.59-.61,4.15,4.15,0,0,0-.79-.39,7.74,7.74,0,0,0-1.72-.43c-.65-.1-1.3-.1-1.95-.18s-1.07-.18-1.61-.3a17,17,0,0,1-2.77-.93,10,10,0,0,1-2.17-1.37,18.89,18.89,0,0,1-3.64-3.67,26.25,26.25,0,0,1-1.72-2.45c-.91-1.48-1.69-3-2.47-4.56-.29-.46-.55-.92-.79-1.4a17.54,17.54,0,0,1,4.72-.85.85.85,0,0,0,0-1.69,20,20,0,0,0-5.39,1c-.09-.22-.17-.45-.24-.68A11.49,11.49,0,0,1,4.84,251l-.25-.68c-.19-.79-.38-1.58-.58-2.38a31.79,31.79,0,0,1-.9-3.86,25,25,0,0,1-.43-2.59,47.08,47.08,0,0,1-.55-6.38c0-1.32.11-2.64.25-3.95.06-.9.16-1.78.3-2.67.19-1.31.37-2.6.67-3.9L4,221.93a50.64,50.64,0,0,1,2-5.36c0-.11.26-.35.39-.36s.23.09.19.21l0,0c0-.1.09-.2.13-.3s.19-.28.3-.27H7A.3.3,0,0,1,7,215.8a16.61,16.61,0,0,1-1.79-3.12,8.17,8.17,0,0,1-1-2.73,3.14,3.14,0,0,1,.57-2.38c.61-.79,1.76-1.16,1.12-2.29-.72-1.29-1.79-2.41-.73-3.87a17.49,17.49,0,0,1,2-1.81,3.82,3.82,0,0,0,1-2.77.08.08,0,0,1-.12-.06,9,9,0,0,1,.46-5.68,1.89,1.89,0,0,1,1.91-1.3C6.8,182.66,3.38,175.41.34,168l-.3-.73a.76.76,0,0,1,.52-.93,66.23,66.23,0,0,1,8.06-1Z"/><path class="cls-1" d="M36.75,83.57c1.45-17.68,5.86-33.35,26.61-34a72.39,72.39,0,0,1,27.53,5.75c20.93,10.5,27.57,48.85,9.13,64.29a.21.21,0,0,1,.07.27l-.06.06a70.88,70.88,0,0,1-12.29,6.45c-11.29,4.78-24.59,6.85-36.11,1.67C34.05,120.57,33.79,99.74,36.75,83.57Z"/><path class="cls-2" d="M2.33,75.23A5.25,5.25,0,0,1,.8,72.77a4.77,4.77,0,0,1,0-2.7c.28-.93.89-1.68.75-2.65a1.5,1.5,0,0,0-.06-.29C1,65.3-.34,64,.13,62a3.38,3.38,0,0,1,.72-1.5c0-.44-.07-.88-.1-1.33a7.06,7.06,0,0,1,.08-5.66,21.91,21.91,0,0,1,.46-2.67,5.09,5.09,0,0,1,.29-2.31A33.27,33.27,0,0,1,3.14,45,1.25,1.25,0,0,1,3.28,44a9.23,9.23,0,0,1,1.16-1.48c.31-.55.61-1.08.92-1.61.14-.25.29-.52.46-.8A2.77,2.77,0,0,1,5.6,37.4a1.22,1.22,0,0,1,1.11-.64l1.38.06A9.93,9.93,0,0,1,11,34.29c1.07-.9,2.15-1.79,3.2-2.7l.89-.77v0c.22-.8.47-1.59.72-2.39.15-.49.2-1,.68-1.27a9.92,9.92,0,0,1,3.69-.75l.34-.3a5.37,5.37,0,0,1,.23-4.26,1,1,0,0,1,1.43-.37,4.8,4.8,0,0,0,3.3.87C27.19,21,34,15.12,35.1,14.49a.16.16,0,0,0,0-.07,8.56,8.56,0,0,1,2.13-2.32l.35-.36a4.41,4.41,0,0,0-1-2.21,1,1,0,0,1,1.23-1.59l.22.1c.82.37,1.72.76,2.65,1.09.34-.13.69-.24,1-.37l3.41-1.37c.56-.23,1.15-.42,1.7-.68a2.62,2.62,0,0,1,2.76-2,2.34,2.34,0,0,0-.5-.88c-.67-.79.23-2.24,1.19-1.54l.21.14c.26.19.54.36.81.54a1.84,1.84,0,0,1,1.47,0,15.37,15.37,0,0,1,3.24,1.63l.13.08a2.79,2.79,0,0,1,2-1h0a2.65,2.65,0,0,1,2.49-1.18A2.52,2.52,0,0,1,62.94,0a2.55,2.55,0,0,1,2.78,1.81l.31,1A10.68,10.68,0,0,1,69.12,1.8a15.92,15.92,0,0,1,7.21.7l.71.21c.34-.39.66-.79,1-1.16a1,1,0,0,1,1.69.7,1.33,1.33,0,0,0,.55,1.27,8.18,8.18,0,0,0,1.4.07,4.74,4.74,0,0,0,2-.36,2.71,2.71,0,0,0,1.09-.9A2.62,2.62,0,0,1,88.8,1.9,2.69,2.69,0,0,1,91.89,3,3.08,3.08,0,0,0,93.7,4q.94.25,1.92.42A1,1,0,0,1,97,4.11c.31.22.6.45.89.68a12.34,12.34,0,0,0,6.54-.55c1.79-.73,3.44,1.27,3.14,3,.52.27,1.09.45,1.6.73a6.43,6.43,0,0,1,2.6,2.74q.15.32.27.63c.42.34.84.69,1.24,1.06l2-1c.5-.25,1.35-.08,1.45.59a6.14,6.14,0,0,0,1.12,2.78,45.38,45.38,0,0,1,5.29,3.24c1.94.61,4,1,5.7,1.37a1,1,0,0,1,.57,1.4l-1,1.6a40.06,40.06,0,0,1,2.73,2.95,54.87,54.87,0,0,1,6.16,9.22l2.12.86a1,1,0,0,1,.43,1.64,6.43,6.43,0,0,0-.7.88A11.66,11.66,0,0,0,142.9,42,2.55,2.55,0,0,1,144,43.31l.51.36a1,1,0,0,1,.2,1.57,6.6,6.6,0,0,0-1.05,1.12l-.2.72A17.85,17.85,0,0,1,147.19,52a.83.83,0,0,1,.65.13c1.7,1.26,1.75,3.27,1.07,5.06a18.41,18.41,0,0,1-.65,8.11,7.63,7.63,0,0,1,1.94,4,83.6,83.6,0,0,1,.6,9.11,9.38,9.38,0,0,1,2.42,4.08l1.14.57a1.13,1.13,0,0,1,.57,1,8.09,8.09,0,0,1-1.84,4.56,10.18,10.18,0,0,1-1.56,2.82,20.24,20.24,0,0,0-1.34,1.85.56.56,0,0,0-.09.17,4,4,0,0,1,.41.66,4.31,4.31,0,0,1-.4,5.24,1.29,1.29,0,0,1,.08,1.81c-3,3.43-5.5,7.6-9.65,9.42l-.06.09a6.11,6.11,0,0,1,.27,5.18s0,0,0,.06c-.37,1.1-1.05,2.86-2.27,3.2a4,4,0,0,1-1.13.15l-2.9,2.8a9.53,9.53,0,0,0-.16,1.4,1.25,1.25,0,0,1-1.56,1.2c-.28-.08-1.84-1.6-2.12-1.59l-.43.44a4.73,4.73,0,0,0-1.28,2,2.79,2.79,0,0,1-1.94,2.5,1.08,1.08,0,0,1-1.62,0l-.1-.1-.16,0-.75,2.23a2.65,2.65,0,0,1-3.71,1.55l-.64.4c-.32.21-.64.42-1,.61a1.09,1.09,0,0,0,0,.17,1.18,1.18,0,0,1-1.67.63,5.29,5.29,0,0,1-3.29,0,8.57,8.57,0,0,0-2-.7h-.13a5.45,5.45,0,0,1-2.88,2.49,5.28,5.28,0,0,1-3.91-.26,9,9,0,0,1-1.23,1.85.75.75,0,0,1-1,0l-1.59-1.42-1.17-.49a23.19,23.19,0,0,1-3.82-1.47,6.82,6.82,0,0,1-1.5-1.33,10.91,10.91,0,0,1-2.22-1.72,2.23,2.23,0,0,1-1-.25,4.24,4.24,0,0,1-2.23-3.67,26,26,0,0,1-2-8.51,20.19,20.19,0,0,1,0-2.91,5,5,0,0,1,.48-1.75,6,6,0,0,0,.23-.59c0-.65,0-1.3,0-1.95A3.63,3.63,0,0,0,87,109.2a2.41,2.41,0,0,1-.37-2.87l1.2-1.59c-.11-2.27-.66-5.9.55-6.28,0-.34-.15-.67-.21-1A6.09,6.09,0,0,1,88.94,93a9.16,9.16,0,0,0,.46-.8l.23-1.4c.13-.72.24-1.44.34-2.16.06-.93.1-1.86.16-2.78s.1-1.71.16-2.57c0-.38-.06-.76-.11-1.14C89.89,79.85,89,79,87.35,77.42l-.76-.14a11.2,11.2,0,0,0-3.54-.47c-1.28.14-2.43.7-3.69,0-.36-.22-1.17-.8-1.24-1.26,0,0,0-.05,0-.08l-.27,0c-1,0-1.94.36-2.94.25a4.64,4.64,0,0,1-3-1.44,7.37,7.37,0,0,1-2.73.2,6,6,0,0,1-2.16-.73c-.5-.27-.34-.35-.89-.13-1.24.5-2.36,1.17-3.76.82a4,4,0,0,1-1.87-1.09,5.42,5.42,0,0,1-.48-.48c-.66.33-2.33,1.09-2.61,1.16a4.3,4.3,0,0,1-2.36-.09c-.55-.19-1.23-.7-1.72-.8s-2,.75-2.79,1a5.29,5.29,0,0,1-4.06.11c-.46-.19-1.36-.94-1.7-.93a36.69,36.69,0,0,0-2.59,5.85c-1.9,5.58-2.4,23-1.52,27.45,0,.13.07.26.11.39a62.93,62.93,0,0,0,4,11.4,18.62,18.62,0,0,0,7.42,8.3,21.1,21.1,0,0,0,11.54,2.17,41.11,41.11,0,0,0,7.48-1.31c1.28-.34,2.55-.7,3.81-1.09.55-.17,1.11-.32,1.65-.52a2.55,2.55,0,0,1,2.37.07,1.73,1.73,0,0,1,.62,2.34c-.71,1.21-2,1.3-3.25,1.65s-2.55.71-3.83,1a50.06,50.06,0,0,1-7.49,1.26,25.76,25.76,0,0,1-13.28-2.18c-.47-.22-.91-.46-1.35-.72l.49.67a1.47,1.47,0,0,1-.52,2l-.61.3-.09.2a4.5,4.5,0,0,1-3.06,2.17,18.54,18.54,0,0,1-4.65.06l-4.2-.13-1,0-5-.15a5,5,0,0,1-2.8-.52,4.28,4.28,0,0,1-1.55-1.14,6.26,6.26,0,0,1-.77-.41,10.1,10.1,0,0,1-2.15-1.89c-1.11.35-2.66,0-2.87-1.37-.35-2.22-3.24-3.17-4.58-4.77a7.24,7.24,0,0,1-1.83-4.62c-2.74-1.33-4.23-4.83-4.58-7.8-.16-1.37-.14-2.85-.37-4.24a2.93,2.93,0,0,1-.28-.36A29.73,29.73,0,0,1,8.3,104a4.81,4.81,0,0,0-2.48-.89,2,2,0,0,1-.52-3.85h0a5.51,5.51,0,0,1,.17-4.5l-.09-.44a6.72,6.72,0,0,1-1.79-4.79,6,6,0,0,0-1.82-.86,1.16,1.16,0,0,1-.27-2.1,3.8,3.8,0,0,0,.77-.78A5,5,0,0,1,3.05,81L1,78.39a1.5,1.5,0,0,1,0-2.11l1.32-1Z"/><path class="cls-2" d="M52,108.17a1.78,1.78,0,0,0-3.22.42c-.67,3,2.93,5.82,5.67,5.89s5.78-2.25,5.38-5.18c-.09-.72-1.06-.63-1.39-.18l-.13.18c-.89,1.2-2.07,2.45-3.74,2.15a2.88,2.88,0,0,1-1.73-1.1c-.5-.67-.44-1.47-.84-2.18ZM69.28,86a1.58,1.58,0,0,0-1.07.08,2.08,2.08,0,0,0-1.55,1.43l-.06.18,0,.09.08-.22a6.35,6.35,0,0,1-.28.67,2.29,2.29,0,0,0-.07.87l-.7,0-.22,0c-1.25.12-2.62.33-3.37,1.41a1.25,1.25,0,0,0,.74,1.82c1.18.18,2.2-.47,3.37-.6a11.91,11.91,0,0,1,3.37.15c2.26.41,4.34,1.33,6.54,1.9l.3.08h0c.38.09.81-.43.44-.74a19.68,19.68,0,0,0-6.26-3.35,2,2,0,0,0,.2-1.75,2.19,2.19,0,0,0-.12-.33l-.09-.23a1.65,1.65,0,0,0-.06-.32v0h0A1.72,1.72,0,0,0,69.28,86Zm-22.55-.32a1.23,1.23,0,0,0-1.66,0l-.07,0a2.72,2.72,0,0,0-1.13,1.1,2.76,2.76,0,0,0-.45,1.39,4.1,4.1,0,0,0-3.15,1.29A1.25,1.25,0,0,0,40,90.71l.09.25c.29.78,1.58,1.23,2,.31l0,0c.47-1.08,2.27-1,3.22-.86a11.92,11.92,0,0,1,2,.43L48,91l.23.07c.12,0,.74.38.35.3-.1,0-.18.13-.07.18a.69.69,0,0,0,.92-.72C49.33,90,48,89.5,47.3,89.2h0c-.25-.12-.51-.23-.79-.34a3.56,3.56,0,0,0,.39-.75,3,3,0,0,0,.2-.78.68.68,0,0,0,0-.4v0a2.45,2.45,0,0,0,0-.27v0h0a1.28,1.28,0,0,0-.35-.85Zm7.72,9.58c-1.86.57-4.92,2.13-4,4.54,1.35,2.22,4.93.59,6.67-.13A1.24,1.24,0,0,1,58,102C45.57,107,45.62,94,54,94.15,54.92,94.17,55,95.1,54.45,95.3Zm16.48-17-.32-.09c-1.64-.48-3.32-1.3-4.78,0a1.8,1.8,0,0,0-.28,2.18c.93,1.44,2.32,1.22,3.83,1.34a11.79,11.79,0,0,1,3.35.85A11.66,11.66,0,0,1,75.19,84c.75.53,1.27,1.36,2,1.84a.49.49,0,0,0,.72-.29c.36-1-.25-2.27-.77-3.13a8.08,8.08,0,0,0-2.61-2.56,13.92,13.92,0,0,0-3.64-1.5ZM47,77.24a8.73,8.73,0,0,0-7,3.82,1.73,1.73,0,0,0,.62,2.35,1.76,1.76,0,0,0,2.32-.57l0,0a8.72,8.72,0,0,1,3.4-2.73,8.84,8.84,0,0,1,2.12-.66l.23,0a3.1,3.1,0,0,1,1,0,1.15,1.15,0,0,1,.44.15.18.18,0,0,0,.25.22c.69-.38.61-1.05,0-1.58A5.57,5.57,0,0,0,47,77.24Z"/><path class="cls-2" d="M53.14,103.52c2.35-1.06,6.57-.14,8.1.23,3.56.86,7.15,2.7,8.25,5.59,1.25,3.26-1.24,4.29-1.6,4.12-2.47.18-5.41-1.37-8-1.77A18,18,0,0,1,53.63,110c-1.44.79-4.68,1.21-7.29,1.9-2.23.59-3.19,1.87-5.26,1.59-2.47-.32-1.46-5.53,1.3-7.64,3-2.3,8.12-3.24,10.76-2.29Zm-4.65,22.26c2.06.5,2.19-4,2.42-5.6.18-1.24,1.2-4.45,3.77-4.31s3.54,2.82,3.41,4.5c-.08,1.08-1.08,6.57,2.1,7.27a38.49,38.49,0,0,0,6.52-.54c2.52-.57,5.79-2.57,6.65,1.36.31,1.42-10.76,5.62-15.68,6a15.89,15.89,0,0,1-14.37-4.36,23.15,23.15,0,0,1-3.24-5.36c-.34-1.85.45-3,2.74-2.39C44.43,123.22,47.17,125.46,48.49,125.78Z"/><path class="cls-2" d="M34.47,96.57a9.53,9.53,0,0,0,10.26,2c8.76-3.66,4.47-15.08-2.29-18.15a22,22,0,0,0-3-.82c-.09,0-.29.08-.54,0-7.45.83-9.15,12.4-4.43,17m28.26.68a10.82,10.82,0,0,0,12.6,3.22C84,97.07,80.9,86.94,75,83c-12.48-4.69-17.63,7.24-12.26,14.28m18.71-8.46h0l-.14-.06,0,.12.06,0M28.53,84.67a3.83,3.83,0,0,1,2.3.6c1.44-4.85,6.75-9.34,11.36-6.06a12.81,12.81,0,0,1,7.87,7.21c2.76-1.65,7.11-1,9.51,1.23,1.57-5.19,5.43-7,10-7.28,5-.82,10,4.06,11.58,8,1.3-.15,3.24-.56,4.46.24,7.92-2.08,21.78-3.22,23.39-2.07,1.14.44,1.77,3.15.17,3.3-1.4-.2.16-2-1.24-2.18-7.51-.47-14.79,1-22.22,1.68-.66.89-2.81,1.19-3.95.83,1.8,6.64-2.08,11.15-7.9,12.5-9,2.07-16.86-6-14.5-14.38a13,13,0,0,0-8.85-.59c5,18.3-24.49,17.48-19.89-1.77-3.06,1.52-3.73-.93-2.12-1.23"/></g></g></svg>